solid OpenSCAD_Model
  facet normal -0.965926 -0.25882 0
    outer loop
      vertex 8 -46 0
      vertex 7.73205 -45 0.9
      vertex 7.73205 -45 0
    endloop
  endfacet
  facet normal -0.965926 -0.25882 0
    outer loop
      vertex 7.73205 -45 0.9
      vertex 8 -46 0
      vertex 8 -46 0.9
    endloop
  endfacet
  facet normal 0.965926 -0.25882 0
    outer loop
      vertex 4 -46 0.9
      vertex 4.26795 -45 0
      vertex 4.26795 -45 0.9
    endloop
  endfacet
  facet normal 0.965926 -0.25882 0
    outer loop
      vertex 4.26795 -45 0
      vertex 4 -46 0.9
      vertex 4 -46 0
    endloop
  endfacet
  facet normal -0.258822 -0.965925 0
    outer loop
      vertex 6 -44 0
      vertex 7 -44.268 0.9
      vertex 6 -44 0.9
    endloop
  endfacet
  facet normal -0.258822 -0.965925 -0
    outer loop
      vertex 7 -44.268 0.9
      vertex 6 -44 0
      vertex 7 -44.268 0
    endloop
  endfacet
  facet normal -0.707106 -0.707108 0
    outer loop
      vertex 7 -44.268 0
      vertex 7.73205 -45 0.9
      vertex 7 -44.268 0.9
    endloop
  endfacet
  facet normal -0.707106 -0.707108 -0
    outer loop
      vertex 7.73205 -45 0.9
      vertex 7 -44.268 0
      vertex 7.73205 -45 0
    endloop
  endfacet
  facet normal 0.258822 -0.965925 0
    outer loop
      vertex 5 -44.268 0
      vertex 6 -44 0.9
      vertex 5 -44.268 0.9
    endloop
  endfacet
  facet normal 0.258822 -0.965925 0
    outer loop
      vertex 6 -44 0.9
      vertex 5 -44.268 0
      vertex 6 -44 0
    endloop
  endfacet
  facet normal 0.707105 -0.707108 0
    outer loop
      vertex 4.26795 -45 0
      vertex 5 -44.268 0.9
      vertex 4.26795 -45 0.9
    endloop
  endfacet
  facet normal 0.707105 -0.707108 0
    outer loop
      vertex 5 -44.268 0.9
      vertex 4.26795 -45 0
      vertex 5 -44.268 0
    endloop
  endfacet
  facet normal -0.965926 0.25882 0
    outer loop
      vertex 7.73205 -47 0
      vertex 8 -46 0.9
      vertex 8 -46 0
    endloop
  endfacet
  facet normal -0.965926 0.25882 0
    outer loop
      vertex 8 -46 0.9
      vertex 7.73205 -47 0
      vertex 7.73205 -47 0.9
    endloop
  endfacet
  facet normal 0.258822 0.965925 -0
    outer loop
      vertex 6 -48 0
      vertex 5 -47.732 0.9
      vertex 6 -48 0.9
    endloop
  endfacet
  facet normal 0.258822 0.965925 0
    outer loop
      vertex 5 -47.732 0.9
      vertex 6 -48 0
      vertex 5 -47.732 0
    endloop
  endfacet
  facet normal 0.965926 0.25882 0
    outer loop
      vertex 4.26795 -47 0.9
      vertex 4 -46 0
      vertex 4 -46 0.9
    endloop
  endfacet
  facet normal 0.965926 0.25882 0
    outer loop
      vertex 4 -46 0
      vertex 4.26795 -47 0.9
      vertex 4.26795 -47 0
    endloop
  endfacet
  facet normal -0.707106 0.707108 0
    outer loop
      vertex 7.73205 -47 0
      vertex 7 -47.732 0.9
      vertex 7.73205 -47 0.9
    endloop
  endfacet
  facet normal -0.707106 0.707108 0
    outer loop
      vertex 7 -47.732 0.9
      vertex 7.73205 -47 0
      vertex 7 -47.732 0
    endloop
  endfacet
  facet normal -0.258822 0.965925 0
    outer loop
      vertex 7 -47.732 0
      vertex 6 -48 0.9
      vertex 7 -47.732 0.9
    endloop
  endfacet
  facet normal -0.258822 0.965925 0
    outer loop
      vertex 6 -48 0.9
      vertex 7 -47.732 0
      vertex 6 -48 0
    endloop
  endfacet
  facet normal 0.707106 0.707108 -0
    outer loop
      vertex 5 -47.732 0
      vertex 4.26795 -47 0.9
      vertex 5 -47.732 0.9
    endloop
  endfacet
  facet normal 0.707106 0.707108 0
    outer loop
      vertex 4.26795 -47 0.9
      vertex 5 -47.732 0
      vertex 4.26795 -47 0
    endloop
  endfacet
  facet normal -0.965926 -0.258819 0
    outer loop
      vertex 9.24759 -44.125 0.9
      vertex 9.56552 -45.3115 2
      vertex 9.24759 -44.125 2
    endloop
  endfacet
  facet normal -0.965926 -0.258819 2.19632e-07
    outer loop
      vertex 9.75 -46 0.9
      vertex 9.56552 -45.3115 2
      vertex 9.24759 -44.125 0.9
    endloop
  endfacet
  facet normal -0.965926 -0.258819 0
    outer loop
      vertex 9.56552 -45.3115 2
      vertex 9.75 -46 0.9
      vertex 9.75 -46 1.49322
    endloop
  endfacet
  facet normal 0.965926 -0.258819 0
    outer loop
      vertex 2.25 -46 2
      vertex 2.75241 -44.125 0.9
      vertex 2.75241 -44.125 2
    endloop
  endfacet
  facet normal 0.965926 -0.258819 0
    outer loop
      vertex 2.75241 -44.125 0.9
      vertex 2.25 -46 2
      vertex 2.25 -46 0.9
    endloop
  endfacet
  facet normal -0.258818 -0.965926 0
    outer loop
      vertex 6 -42.25 0.9
      vertex 7.875 -42.7524 2
      vertex 6 -42.25 2
    endloop
  endfacet
  facet normal -0.258818 -0.965926 -0
    outer loop
      vertex 7.875 -42.7524 2
      vertex 6 -42.25 0.9
      vertex 7.875 -42.7524 0.9
    endloop
  endfacet
  facet normal -0.707107 -0.707106 0
    outer loop
      vertex 9.24759 -44.125 0.9
      vertex 7.875 -42.7524 2
      vertex 7.875 -42.7524 0.9
    endloop
  endfacet
  facet normal -0.707107 -0.707106 0
    outer loop
      vertex 7.875 -42.7524 2
      vertex 9.24759 -44.125 0.9
      vertex 9.24759 -44.125 2
    endloop
  endfacet
  facet normal 0.258818 -0.965926 0
    outer loop
      vertex 4.125 -42.7524 0.9
      vertex 6 -42.25 2
      vertex 4.125 -42.7524 2
    endloop
  endfacet
  facet normal 0.258818 -0.965926 0
    outer loop
      vertex 6 -42.25 2
      vertex 4.125 -42.7524 0.9
      vertex 6 -42.25 0.9
    endloop
  endfacet
  facet normal -0.25882 0.965926 5.7738e-06
    outer loop
      vertex 6 -49.75 0.9
      vertex 6.99527 -49.4833 1.15121
      vertex 7.66866 -49.3029 0.9
    endloop
  endfacet
  facet normal -0.258819 0.965926 0
    outer loop
      vertex 6.99527 -49.4833 1.15121
      vertex 6 -49.75 0.9
      vertex 6 -49.75 1.5225
    endloop
  endfacet
  facet normal 0.965926 0.258819 0
    outer loop
      vertex 2.75241 -47.875 2
      vertex 2.25 -46 0.9
      vertex 2.25 -46 2
    endloop
  endfacet
  facet normal 0.965926 0.258819 0
    outer loop
      vertex 2.25 -46 0.9
      vertex 2.75241 -47.875 2
      vertex 2.75241 -47.875 0.9
    endloop
  endfacet
  facet normal 0.25882 0.965926 -2.5283e-06
    outer loop
      vertex 4.125 -49.2476 0.9
      vertex 5.37416 -49.5823 2
      vertex 5.5613 -49.6325 1.8774
    endloop
  endfacet
  facet normal 0.258819 0.965926 -0
    outer loop
      vertex 6 -49.75 0.9
      vertex 5.5613 -49.6325 1.8774
      vertex 6 -49.75 1.5225
    endloop
  endfacet
  facet normal 0.258818 0.965926 -4.88526e-07
    outer loop
      vertex 5.5613 -49.6325 1.8774
      vertex 6 -49.75 0.9
      vertex 4.125 -49.2476 0.9
    endloop
  endfacet
  facet normal 0.258818 0.965926 0
    outer loop
      vertex 5.37416 -49.5823 2
      vertex 4.125 -49.2476 0.9
      vertex 4.125 -49.2476 2
    endloop
  endfacet
  facet normal 0 0 1
    outer loop
      vertex 8 -46 0.9
      vertex 9.75 -46 0.9
      vertex 9.24759 -44.125 0.9
    endloop
  endfacet
  facet normal 0 0 1
    outer loop
      vertex 9.75 -46 0.9
      vertex 8 -46 0.9
      vertex 9.30916 -47.6452 0.9
    endloop
  endfacet
  facet normal -0 0 1
    outer loop
      vertex 7.73205 -47 0.9
      vertex 9.30916 -47.6452 0.9
      vertex 8 -46 0.9
    endloop
  endfacet
  facet normal 0 0 1
    outer loop
      vertex 9.30916 -47.6452 0.9
      vertex 7.73205 -47 0.9
      vertex 9.09667 -47.8812 0.9
    endloop
  endfacet
  facet normal 0 0 1
    outer loop
      vertex 7.73205 -45 0.9
      vertex 9.24759 -44.125 0.9
      vertex 7.875 -42.7524 0.9
    endloop
  endfacet
  facet normal 0 0 1
    outer loop
      vertex 9.24759 -44.125 0.9
      vertex 7.73205 -45 0.9
      vertex 8 -46 0.9
    endloop
  endfacet
  facet normal 0 0 1
    outer loop
      vertex 7.875 -42.7524 0.9
      vertex 7 -44.268 0.9
      vertex 7.73205 -45 0.9
    endloop
  endfacet
  facet normal 0 0 1
    outer loop
      vertex 6 -42.25 0.9
      vertex 7 -44.268 0.9
      vertex 7.875 -42.7524 0.9
    endloop
  endfacet
  facet normal 0 0 1
    outer loop
      vertex 6 -42.25 0.9
      vertex 6 -44 0.9
      vertex 7 -44.268 0.9
    endloop
  endfacet
  facet normal 0 0 1
    outer loop
      vertex 6 -42.25 0.9
      vertex 5 -44.268 0.9
      vertex 6 -44 0.9
    endloop
  endfacet
  facet normal -0 0 1
    outer loop
      vertex 4.125 -42.7524 0.9
      vertex 5 -44.268 0.9
      vertex 6 -42.25 0.9
    endloop
  endfacet
  facet normal 0 0 1
    outer loop
      vertex 5 -44.268 0.9
      vertex 4.125 -42.7524 0.9
      vertex 4.26795 -45 0.9
    endloop
  endfacet
  facet normal -0 0 1
    outer loop
      vertex 2.75241 -44.125 0.9
      vertex 4.26795 -45 0.9
      vertex 4.125 -42.7524 0.9
    endloop
  endfacet
  facet normal 0 0 1
    outer loop
      vertex 4.26795 -45 0.9
      vertex 2.75241 -44.125 0.9
      vertex 4 -46 0.9
    endloop
  endfacet
  facet normal 0 0 1
    outer loop
      vertex 9.09667 -47.8812 0.9
      vertex 7.73205 -47 0.9
      vertex 8.09648 -48.9921 0.9
    endloop
  endfacet
  facet normal -0 0 1
    outer loop
      vertex 7 -47.732 0.9
      vertex 8.09648 -48.9921 0.9
      vertex 7.73205 -47 0.9
    endloop
  endfacet
  facet normal 0 0 1
    outer loop
      vertex 8.09648 -48.9921 0.9
      vertex 7 -47.732 0.9
      vertex 7.66866 -49.3029 0.9
    endloop
  endfacet
  facet normal -0 0 1
    outer loop
      vertex 6 -48 0.9
      vertex 7.66866 -49.3029 0.9
      vertex 7 -47.732 0.9
    endloop
  endfacet
  facet normal 0 0 1
    outer loop
      vertex 6 -48 0.9
      vertex 6 -49.75 0.9
      vertex 7.66866 -49.3029 0.9
    endloop
  endfacet
  facet normal 0 0 1
    outer loop
      vertex 5 -47.732 0.9
      vertex 6 -49.75 0.9
      vertex 6 -48 0.9
    endloop
  endfacet
  facet normal 0 0 1
    outer loop
      vertex 4.125 -49.2476 0.9
      vertex 5 -47.732 0.9
      vertex 4.26795 -47 0.9
    endloop
  endfacet
  facet normal 0 0 1
    outer loop
      vertex 5 -47.732 0.9
      vertex 4.125 -49.2476 0.9
      vertex 6 -49.75 0.9
    endloop
  endfacet
  facet normal 0 0 1
    outer loop
      vertex 2.75241 -47.875 0.9
      vertex 4.26795 -47 0.9
      vertex 4 -46 0.9
    endloop
  endfacet
  facet normal 0 0 1
    outer loop
      vertex 2.25 -46 0.9
      vertex 4 -46 0.9
      vertex 2.75241 -44.125 0.9
    endloop
  endfacet
  facet normal 0 0 1
    outer loop
      vertex 4.26795 -47 0.9
      vertex 2.75241 -47.875 0.9
      vertex 4.125 -49.2476 0.9
    endloop
  endfacet
  facet normal 0 0 1
    outer loop
      vertex 4 -46 0.9
      vertex 2.25 -46 0.9
      vertex 2.75241 -47.875 0.9
    endloop
  endfacet
  facet normal 0.707107 -0.707107 0
    outer loop
      vertex 2.75241 -44.125 2
      vertex 4.125 -42.7524 0.9
      vertex 4.125 -42.7524 2
    endloop
  endfacet
  facet normal 0.707107 -0.707107 0
    outer loop
      vertex 4.125 -42.7524 0.9
      vertex 2.75241 -44.125 2
      vertex 2.75241 -44.125 0.9
    endloop
  endfacet
  facet normal -0.965926 0.25882 0
    outer loop
      vertex 9.75 -46 0.9
      vertex 9.50692 -46.9072 1.2488
      vertex 9.75 -46 1.49322
    endloop
  endfacet
  facet normal -0.965926 0.25882 -9.56544e-07
    outer loop
      vertex 9.50692 -46.9072 1.2488
      vertex 9.75 -46 0.9
      vertex 9.30916 -47.6452 0.9
    endloop
  endfacet
  facet normal 0.707107 0.707106 0
    outer loop
      vertex 4.125 -49.2476 2
      vertex 2.75241 -47.875 0.9
      vertex 2.75241 -47.875 2
    endloop
  endfacet
  facet normal 0.707107 0.707106 0
    outer loop
      vertex 2.75241 -47.875 0.9
      vertex 4.125 -49.2476 2
      vertex 4.125 -49.2476 0.9
    endloop
  endfacet
  facet normal -0.965926 -0.25882 0
    outer loop
      vertex -4 -34 0
      vertex -4.26795 -33 0.9
      vertex -4.26795 -33 0
    endloop
  endfacet
  facet normal -0.965926 -0.25882 0
    outer loop
      vertex -4.26795 -33 0.9
      vertex -4 -34 0
      vertex -4 -34 0.9
    endloop
  endfacet
  facet normal 0.965926 -0.25882 0
    outer loop
      vertex -8 -34 0.9
      vertex -7.73205 -33 0
      vertex -7.73205 -33 0.9
    endloop
  endfacet
  facet normal 0.965926 -0.25882 0
    outer loop
      vertex -7.73205 -33 0
      vertex -8 -34 0.9
      vertex -8 -34 0
    endloop
  endfacet
  facet normal -0.258822 -0.965925 0
    outer loop
      vertex -6 -32 0
      vertex -5 -32.268 0.9
      vertex -6 -32 0.9
    endloop
  endfacet
  facet normal -0.258822 -0.965925 -0
    outer loop
      vertex -5 -32.268 0.9
      vertex -6 -32 0
      vertex -5 -32.268 0
    endloop
  endfacet
  facet normal -0.707106 -0.707108 0
    outer loop
      vertex -5 -32.268 0
      vertex -4.26795 -33 0.9
      vertex -5 -32.268 0.9
    endloop
  endfacet
  facet normal -0.707106 -0.707108 -0
    outer loop
      vertex -4.26795 -33 0.9
      vertex -5 -32.268 0
      vertex -4.26795 -33 0
    endloop
  endfacet
  facet normal 0.258822 -0.965925 0
    outer loop
      vertex -7 -32.268 0
      vertex -6 -32 0.9
      vertex -7 -32.268 0.9
    endloop
  endfacet
  facet normal 0.258822 -0.965925 0
    outer loop
      vertex -6 -32 0.9
      vertex -7 -32.268 0
      vertex -6 -32 0
    endloop
  endfacet
  facet normal 0.707105 -0.707108 0
    outer loop
      vertex -7.73205 -33 0
      vertex -7 -32.268 0.9
      vertex -7.73205 -33 0.9
    endloop
  endfacet
  facet normal 0.707105 -0.707108 0
    outer loop
      vertex -7 -32.268 0.9
      vertex -7.73205 -33 0
      vertex -7 -32.268 0
    endloop
  endfacet
  facet normal 0.258822 0.965925 -0
    outer loop
      vertex -6 -36 0
      vertex -7 -35.732 0.9
      vertex -6 -36 0.9
    endloop
  endfacet
  facet normal 0.258822 0.965925 0
    outer loop
      vertex -7 -35.732 0.9
      vertex -6 -36 0
      vertex -7 -35.732 0
    endloop
  endfacet
  facet normal 0.965926 0.25882 0
    outer loop
      vertex -7.73205 -35 0.9
      vertex -8 -34 0
      vertex -8 -34 0.9
    endloop
  endfacet
  facet normal 0.965926 0.25882 0
    outer loop
      vertex -8 -34 0
      vertex -7.73205 -35 0.9
      vertex -7.73205 -35 0
    endloop
  endfacet
  facet normal -0.707106 0.707108 0
    outer loop
      vertex -4.26795 -35 0
      vertex -5 -35.732 0.9
      vertex -4.26795 -35 0.9
    endloop
  endfacet
  facet normal -0.707106 0.707108 0
    outer loop
      vertex -5 -35.732 0.9
      vertex -4.26795 -35 0
      vertex -5 -35.732 0
    endloop
  endfacet
  facet normal -0.258822 0.965925 0
    outer loop
      vertex -5 -35.732 0
      vertex -6 -36 0.9
      vertex -5 -35.732 0.9
    endloop
  endfacet
  facet normal -0.258822 0.965925 0
    outer loop
      vertex -6 -36 0.9
      vertex -5 -35.732 0
      vertex -6 -36 0
    endloop
  endfacet
  facet normal -0.965926 0.25882 0
    outer loop
      vertex -4.26795 -35 0
      vertex -4 -34 0.9
      vertex -4 -34 0
    endloop
  endfacet
  facet normal -0.965926 0.25882 0
    outer loop
      vertex -4 -34 0.9
      vertex -4.26795 -35 0
      vertex -4.26795 -35 0.9
    endloop
  endfacet
  facet normal 0.707106 0.707108 -0
    outer loop
      vertex -7 -35.732 0
      vertex -7.73205 -35 0.9
      vertex -7 -35.732 0.9
    endloop
  endfacet
  facet normal 0.707106 0.707108 0
    outer loop
      vertex -7.73205 -35 0.9
      vertex -7 -35.732 0
      vertex -7.73205 -35 0
    endloop
  endfacet
  facet normal -0.965926 -0.258819 0
    outer loop
      vertex -2.25 -34 0.9
      vertex -2.75241 -32.125 2
      vertex -2.75241 -32.125 0.9
    endloop
  endfacet
  facet normal -0.965926 -0.258819 0
    outer loop
      vertex -2.75241 -32.125 2
      vertex -2.25 -34 0.9
      vertex -2.25 -34 2
    endloop
  endfacet
  facet normal 0.965926 -0.25882 0
    outer loop
      vertex -9.75 -34 0.9
      vertex -9.50692 -33.0928 1.2488
      vertex -9.75 -34 1.49322
    endloop
  endfacet
  facet normal 0.965926 -0.25882 -9.56544e-07
    outer loop
      vertex -9.50692 -33.0928 1.2488
      vertex -9.75 -34 0.9
      vertex -9.30916 -32.3548 0.9
    endloop
  endfacet
  facet normal -0.258821 -0.965925 -2.36245e-06
    outer loop
      vertex -4.125 -30.7524 0.9
      vertex -5.37416 -30.4177 2
      vertex -5.5613 -30.3675 1.8774
    endloop
  endfacet
  facet normal -0.258819 -0.965926 0
    outer loop
      vertex -6 -30.25 0.9
      vertex -5.5613 -30.3675 1.8774
      vertex -6 -30.25 1.5225
    endloop
  endfacet
  facet normal -0.258819 -0.965926 3.31308e-07
    outer loop
      vertex -5.5613 -30.3675 1.8774
      vertex -6 -30.25 0.9
      vertex -4.125 -30.7524 0.9
    endloop
  endfacet
  facet normal -0.258819 -0.965926 0
    outer loop
      vertex -5.37416 -30.4177 2
      vertex -4.125 -30.7524 0.9
      vertex -4.125 -30.7524 2
    endloop
  endfacet
  facet normal -0.707107 -0.707107 0
    outer loop
      vertex -2.75241 -32.125 0.9
      vertex -4.125 -30.7524 2
      vertex -4.125 -30.7524 0.9
    endloop
  endfacet
  facet normal -0.707107 -0.707107 0
    outer loop
      vertex -4.125 -30.7524 2
      vertex -2.75241 -32.125 0.9
      vertex -2.75241 -32.125 2
    endloop
  endfacet
  facet normal 0.258819 -0.965926 9.08157e-07
    outer loop
      vertex -6 -30.25 0.9
      vertex -6.99527 -30.5167 1.15121
      vertex -7.66866 -30.6971 0.9
    endloop
  endfacet
  facet normal 0.258819 -0.965926 0
    outer loop
      vertex -6.99527 -30.5167 1.15121
      vertex -6 -30.25 0.9
      vertex -6 -30.25 1.5225
    endloop
  endfacet
  facet normal 0 0 1
    outer loop
      vertex -4 -34 0.9
      vertex -2.25 -34 0.9
      vertex -2.75241 -32.125 0.9
    endloop
  endfacet
  facet normal 0 0 1
    outer loop
      vertex -2.25 -34 0.9
      vertex -4 -34 0.9
      vertex -2.75241 -35.875 0.9
    endloop
  endfacet
  facet normal 0 0 1
    outer loop
      vertex -4.26795 -33 0.9
      vertex -2.75241 -32.125 0.9
      vertex -4.125 -30.7524 0.9
    endloop
  endfacet
  facet normal 0 0 1
    outer loop
      vertex -2.75241 -32.125 0.9
      vertex -4.26795 -33 0.9
      vertex -4 -34 0.9
    endloop
  endfacet
  facet normal 0 0 1
    outer loop
      vertex -4.125 -30.7524 0.9
      vertex -5 -32.268 0.9
      vertex -4.26795 -33 0.9
    endloop
  endfacet
  facet normal 0 0 1
    outer loop
      vertex -6 -30.25 0.9
      vertex -5 -32.268 0.9
      vertex -4.125 -30.7524 0.9
    endloop
  endfacet
  facet normal 0 0 1
    outer loop
      vertex -6 -30.25 0.9
      vertex -6 -32 0.9
      vertex -5 -32.268 0.9
    endloop
  endfacet
  facet normal -0 0 1
    outer loop
      vertex -7.66866 -30.6971 0.9
      vertex -6 -32 0.9
      vertex -6 -30.25 0.9
    endloop
  endfacet
  facet normal 0 0 1
    outer loop
      vertex -6 -32 0.9
      vertex -7.66866 -30.6971 0.9
      vertex -7 -32.268 0.9
    endloop
  endfacet
  facet normal -0 0 1
    outer loop
      vertex -8.09648 -31.0079 0.9
      vertex -7 -32.268 0.9
      vertex -7.66866 -30.6971 0.9
    endloop
  endfacet
  facet normal 0 0 1
    outer loop
      vertex -7 -32.268 0.9
      vertex -8.09648 -31.0079 0.9
      vertex -7.73205 -33 0.9
    endloop
  endfacet
  facet normal -0 0 1
    outer loop
      vertex -9.09667 -32.1188 0.9
      vertex -7.73205 -33 0.9
      vertex -8.09648 -31.0079 0.9
    endloop
  endfacet
  facet normal -0 0 1
    outer loop
      vertex -4.26795 -35 0.9
      vertex -2.75241 -35.875 0.9
      vertex -4 -34 0.9
    endloop
  endfacet
  facet normal 0 0 1
    outer loop
      vertex -2.75241 -35.875 0.9
      vertex -4.26795 -35 0.9
      vertex -4.125 -37.2476 0.9
    endloop
  endfacet
  facet normal -0 0 1
    outer loop
      vertex -5 -35.732 0.9
      vertex -4.125 -37.2476 0.9
      vertex -4.26795 -35 0.9
    endloop
  endfacet
  facet normal -0 0 1
    outer loop
      vertex -6 -36 0.9
      vertex -4.125 -37.2476 0.9
      vertex -5 -35.732 0.9
    endloop
  endfacet
  facet normal 0 0 1
    outer loop
      vertex -6 -36 0.9
      vertex -6 -37.75 0.9
      vertex -4.125 -37.2476 0.9
    endloop
  endfacet
  facet normal 0 0 1
    outer loop
      vertex -7 -35.732 0.9
      vertex -6 -37.75 0.9
      vertex -6 -36 0.9
    endloop
  endfacet
  facet normal 0 0 1
    outer loop
      vertex -7.875 -37.2476 0.9
      vertex -7 -35.732 0.9
      vertex -7.73205 -35 0.9
    endloop
  endfacet
  facet normal 0 0 1
    outer loop
      vertex -7 -35.732 0.9
      vertex -7.875 -37.2476 0.9
      vertex -6 -37.75 0.9
    endloop
  endfacet
  facet normal 0 0 1
    outer loop
      vertex -9.24759 -35.875 0.9
      vertex -7.73205 -35 0.9
      vertex -8 -34 0.9
    endloop
  endfacet
  facet normal -0 0 1
    outer loop
      vertex -9.30916 -32.3548 0.9
      vertex -7.73205 -33 0.9
      vertex -9.09667 -32.1188 0.9
    endloop
  endfacet
  facet normal 0 0 1
    outer loop
      vertex -7.73205 -33 0.9
      vertex -9.30916 -32.3548 0.9
      vertex -8 -34 0.9
    endloop
  endfacet
  facet normal 0 0 1
    outer loop
      vertex -7.73205 -35 0.9
      vertex -9.24759 -35.875 0.9
      vertex -7.875 -37.2476 0.9
    endloop
  endfacet
  facet normal 0 0 1
    outer loop
      vertex -8 -34 0.9
      vertex -9.30916 -32.3548 0.9
      vertex -9.75 -34 0.9
    endloop
  endfacet
  facet normal 0 0 1
    outer loop
      vertex -8 -34 0.9
      vertex -9.75 -34 0.9
      vertex -9.24759 -35.875 0.9
    endloop
  endfacet
  facet normal 0.258818 0.965926 -0
    outer loop
      vertex -6 -37.75 0.9
      vertex -7.875 -37.2476 2
      vertex -6 -37.75 2
    endloop
  endfacet
  facet normal 0.258818 0.965926 0
    outer loop
      vertex -7.875 -37.2476 2
      vertex -6 -37.75 0.9
      vertex -7.875 -37.2476 0.9
    endloop
  endfacet
  facet normal 0.965926 0.258819 0
    outer loop
      vertex -9.56552 -34.6885 2
      vertex -9.75 -34 0.9
      vertex -9.75 -34 1.49322
    endloop
  endfacet
  facet normal 0.965926 0.258819 -0
    outer loop
      vertex -9.24759 -35.875 0.9
      vertex -9.56552 -34.6885 2
      vertex -9.24759 -35.875 2
    endloop
  endfacet
  facet normal 0.965926 0.258819 2.19632e-07
    outer loop
      vertex -9.56552 -34.6885 2
      vertex -9.24759 -35.875 0.9
      vertex -9.75 -34 0.9
    endloop
  endfacet
  facet normal -0.707107 0.707106 0
    outer loop
      vertex -4.125 -37.2476 0.9
      vertex -2.75241 -35.875 2
      vertex -2.75241 -35.875 0.9
    endloop
  endfacet
  facet normal -0.707107 0.707106 0
    outer loop
      vertex -2.75241 -35.875 2
      vertex -4.125 -37.2476 0.9
      vertex -4.125 -37.2476 2
    endloop
  endfacet
  facet normal -0.258818 0.965926 0
    outer loop
      vertex -4.125 -37.2476 0.9
      vertex -6 -37.75 2
      vertex -4.125 -37.2476 2
    endloop
  endfacet
  facet normal -0.258818 0.965926 0
    outer loop
      vertex -6 -37.75 2
      vertex -4.125 -37.2476 0.9
      vertex -6 -37.75 0.9
    endloop
  endfacet
  facet normal -0.965926 0.258819 0
    outer loop
      vertex -2.75241 -35.875 0.9
      vertex -2.25 -34 2
      vertex -2.25 -34 0.9
    endloop
  endfacet
  facet normal -0.965926 0.258819 0
    outer loop
      vertex -2.25 -34 2
      vertex -2.75241 -35.875 0.9
      vertex -2.75241 -35.875 2
    endloop
  endfacet
  facet normal 0.707107 0.707106 0
    outer loop
      vertex -7.875 -37.2476 2
      vertex -9.24759 -35.875 0.9
      vertex -9.24759 -35.875 2
    endloop
  endfacet
  facet normal 0.707107 0.707106 0
    outer loop
      vertex -9.24759 -35.875 0.9
      vertex -7.875 -37.2476 2
      vertex -7.875 -37.2476 0.9
    endloop
  endfacet
  facet normal -0.705162 0.0741156 0.705162
    outer loop
      vertex -12.7159 -37.2971 0
      vertex -13 -40 0
      vertex -10.7596 -37.713 2
    endloop
  endfacet
  facet normal 0.705162 0.0741155 0.705162
    outer loop
      vertex 13 -40 0
      vertex 10.7596 -37.713 2
      vertex 11 -40 2
    endloop
  endfacet
  facet normal 0.705162 0.0741156 0.705162
    outer loop
      vertex 12.7159 -37.2971 0
      vertex 10.7596 -37.713 2
      vertex 13 -40 0
    endloop
  endfacet
  facet normal 0.416767 0.573631 0.705162
    outer loop
      vertex 6.5 -28.7417 0
      vertex 5.5 -30.4737 2
      vertex 7.36044 -31.8254 2
    endloop
  endfacet
  facet normal 0 0 1
    outer loop
      vertex 6 -42.25 2
      vertex 11 -40 2
      vertex 10.7596 -37.713 2
    endloop
  endfacet
  facet normal 0 0 1
    outer loop
      vertex 3.54182 -38.1411 2
      vertex 10.7596 -37.713 2
      vertex 10.049 -35.5259 2
    endloop
  endfacet
  facet normal 0 0 1
    outer loop
      vertex 11 -40 2
      vertex 7.875 -42.7524 2
      vertex 10.7596 -42.287 2
    endloop
  endfacet
  facet normal 0 -0 1
    outer loop
      vertex 9.24759 -44.125 2
      vertex 10.7596 -42.287 2
      vertex 7.875 -42.7524 2
    endloop
  endfacet
  facet normal 0 0 1
    outer loop
      vertex 10.049 -44.4741 2
      vertex 9.24759 -44.125 2
      vertex 9.56552 -45.3115 2
    endloop
  endfacet
  facet normal 0 0 1
    outer loop
      vertex 3.54182 -38.1411 2
      vertex 10.049 -35.5259 2
      vertex 8.89919 -33.5344 2
    endloop
  endfacet
  facet normal 0 0 1
    outer loop
      vertex 10.7596 -42.287 2
      vertex 9.24759 -44.125 2
      vertex 10.049 -44.4741 2
    endloop
  endfacet
  facet normal 0 0 1
    outer loop
      vertex 2.27226 -36.7081 2
      vertex 8.89919 -33.5344 2
      vertex 7.36044 -31.8254 2
    endloop
  endfacet
  facet normal 0 0 1
    outer loop
      vertex 10.7596 -37.713 2
      vertex 3.54182 -38.1411 2
      vertex 4 -40 2
    endloop
  endfacet
  facet normal 0 0 1
    outer loop
      vertex 2.27226 -36.7081 2
      vertex 7.36044 -31.8254 2
      vertex 5.5 -30.4737 2
    endloop
  endfacet
  facet normal 0 0 1
    outer loop
      vertex 10.7596 -37.713 2
      vertex 4 -40 2
      vertex 6 -42.25 2
    endloop
  endfacet
  facet normal -0 0 1
    outer loop
      vertex 3.54182 -41.8589 2
      vertex 6 -42.25 2
      vertex 4 -40 2
    endloop
  endfacet
  facet normal 0 0 1
    outer loop
      vertex 11 -40 2
      vertex 6 -42.25 2
      vertex 7.875 -42.7524 2
    endloop
  endfacet
  facet normal 0 0 1
    outer loop
      vertex 2.27226 -36.7081 2
      vertex 5.5 -30.4737 2
      vertex 3.39919 -29.5384 2
    endloop
  endfacet
  facet normal 0 0 1
    outer loop
      vertex 8.89919 -33.5344 2
      vertex 2.27226 -36.7081 2
      vertex 3.54182 -38.1411 2
    endloop
  endfacet
  facet normal 0 0 1
    outer loop
      vertex 0.482146 -36.0292 2
      vertex 3.39919 -29.5384 2
      vertex 1.14981 -29.0603 2
    endloop
  endfacet
  facet normal 0 0 1
    outer loop
      vertex 3.39919 -29.5384 2
      vertex 0.482146 -36.0292 2
      vertex 2.27226 -36.7081 2
    endloop
  endfacet
  facet normal 0 0 1
    outer loop
      vertex -2.75241 -32.125 2
      vertex 1.14981 -29.0603 2
      vertex -1.14981 -29.0603 2
    endloop
  endfacet
  facet normal 0 0 1
    outer loop
      vertex 1.14981 -29.0603 2
      vertex -2.25 -34 2
      vertex 0.482146 -36.0292 2
    endloop
  endfacet
  facet normal 0 0 1
    outer loop
      vertex 0.482146 -36.0292 2
      vertex -2.25 -34 2
      vertex -1.41842 -36.2599 2
    endloop
  endfacet
  facet normal 0 0 1
    outer loop
      vertex 1.14981 -29.0603 2
      vertex -2.75241 -32.125 2
      vertex -2.25 -34 2
    endloop
  endfacet
  facet normal -0 0 1
    outer loop
      vertex -3.39919 -29.5384 2
      vertex -2.75241 -32.125 2
      vertex -1.14981 -29.0603 2
    endloop
  endfacet
  facet normal 0 0 1
    outer loop
      vertex -3.39919 -29.5384 2
      vertex -4.125 -30.7524 2
      vertex -2.75241 -32.125 2
    endloop
  endfacet
  facet normal 0 -0 1
    outer loop
      vertex -4.125 -30.7524 2
      vertex -3.39919 -29.5384 2
      vertex -5.37416 -30.4177 2
    endloop
  endfacet
  facet normal 0 0 1
    outer loop
      vertex 6 -42.25 2
      vertex 3.54182 -41.8589 2
      vertex 4.125 -42.7524 2
    endloop
  endfacet
  facet normal 0 0 1
    outer loop
      vertex 2.27226 -43.2919 2
      vertex 4.125 -42.7524 2
      vertex 3.54182 -41.8589 2
    endloop
  endfacet
  facet normal 0 0 1
    outer loop
      vertex 4.125 -42.7524 2
      vertex 2.27226 -43.2919 2
      vertex 2.75241 -44.125 2
    endloop
  endfacet
  facet normal -0 0 1
    outer loop
      vertex 0.482146 -43.9708 2
      vertex 2.75241 -44.125 2
      vertex 2.27226 -43.2919 2
    endloop
  endfacet
  facet normal 0 0 1
    outer loop
      vertex 2.75241 -44.125 2
      vertex 0.482146 -43.9708 2
      vertex 2.25 -46 2
    endloop
  endfacet
  facet normal 0 0 1
    outer loop
      vertex -1.41842 -43.7401 2
      vertex 2.25 -46 2
      vertex 0.482146 -43.9708 2
    endloop
  endfacet
  facet normal 0 0 1
    outer loop
      vertex 2.25 -46 2
      vertex -1.14981 -50.9397 2
      vertex 1.14981 -50.9397 2
    endloop
  endfacet
  facet normal 0 0 1
    outer loop
      vertex 2.25 -46 2
      vertex -1.41842 -43.7401 2
      vertex -1.14981 -50.9397 2
    endloop
  endfacet
  facet normal 0 0 1
    outer loop
      vertex -5.5 -49.5263 2
      vertex -1.41842 -43.7401 2
      vertex -2.99404 -42.6525 2
    endloop
  endfacet
  facet normal 0 0 1
    outer loop
      vertex -1.41842 -43.7401 2
      vertex -3.39919 -50.4616 2
      vertex -1.14981 -50.9397 2
    endloop
  endfacet
  facet normal 0 0 1
    outer loop
      vertex -10.049 -44.4741 2
      vertex -2.99404 -42.6525 2
      vertex -3.88377 -40.9573 2
    endloop
  endfacet
  facet normal 0 0 1
    outer loop
      vertex -3.88377 -39.0427 2
      vertex -6 -37.75 2
      vertex -3.88377 -40.9573 2
    endloop
  endfacet
  facet normal 0 0 1
    outer loop
      vertex -1.41842 -43.7401 2
      vertex -5.5 -49.5263 2
      vertex -3.39919 -50.4616 2
    endloop
  endfacet
  facet normal 0 0 1
    outer loop
      vertex -10.7596 -42.287 2
      vertex -3.88377 -40.9573 2
      vertex -6 -37.75 2
    endloop
  endfacet
  facet normal 0 0 1
    outer loop
      vertex -2.99404 -42.6525 2
      vertex -7.36044 -48.1746 2
      vertex -5.5 -49.5263 2
    endloop
  endfacet
  facet normal 0 0 1
    outer loop
      vertex -11 -40 2
      vertex -6 -37.75 2
      vertex -7.875 -37.2476 2
    endloop
  endfacet
  facet normal 0 0 1
    outer loop
      vertex -2.99404 -42.6525 2
      vertex -8.89919 -46.4656 2
      vertex -7.36044 -48.1746 2
    endloop
  endfacet
  facet normal 0 0 1
    outer loop
      vertex -10.7596 -37.713 2
      vertex -7.875 -37.2476 2
      vertex -9.24759 -35.875 2
    endloop
  endfacet
  facet normal -0 0 1
    outer loop
      vertex -10.049 -35.5259 2
      vertex -9.24759 -35.875 2
      vertex -9.56552 -34.6885 2
    endloop
  endfacet
  facet normal 0 0 1
    outer loop
      vertex -9.24759 -35.875 2
      vertex -10.049 -35.5259 2
      vertex -10.7596 -37.713 2
    endloop
  endfacet
  facet normal 0 0 1
    outer loop
      vertex -2.99404 -42.6525 2
      vertex -10.049 -44.4741 2
      vertex -8.89919 -46.4656 2
    endloop
  endfacet
  facet normal 0 0 1
    outer loop
      vertex -7.875 -37.2476 2
      vertex -10.7596 -37.713 2
      vertex -11 -40 2
    endloop
  endfacet
  facet normal 0 0 1
    outer loop
      vertex -3.88377 -40.9573 2
      vertex -10.7596 -42.287 2
      vertex -10.049 -44.4741 2
    endloop
  endfacet
  facet normal 0 0 1
    outer loop
      vertex -6 -37.75 2
      vertex -11 -40 2
      vertex -10.7596 -42.287 2
    endloop
  endfacet
  facet normal 0 0 1
    outer loop
      vertex 4.125 -49.2476 2
      vertex 3.39919 -50.4616 2
      vertex 5.37416 -49.5823 2
    endloop
  endfacet
  facet normal 0 0 1
    outer loop
      vertex 2.75241 -47.875 2
      vertex 3.39919 -50.4616 2
      vertex 4.125 -49.2476 2
    endloop
  endfacet
  facet normal 0 0 1
    outer loop
      vertex 1.14981 -50.9397 2
      vertex 2.75241 -47.875 2
      vertex 2.25 -46 2
    endloop
  endfacet
  facet normal 0 0 1
    outer loop
      vertex 2.75241 -47.875 2
      vertex 1.14981 -50.9397 2
      vertex 3.39919 -50.4616 2
    endloop
  endfacet
  facet normal -0 0 1
    outer loop
      vertex -2.75241 -35.875 2
      vertex -1.41842 -36.2599 2
      vertex -2.25 -34 2
    endloop
  endfacet
  facet normal 0 0 1
    outer loop
      vertex -2.75241 -35.875 2
      vertex -2.99404 -37.3475 2
      vertex -1.41842 -36.2599 2
    endloop
  endfacet
  facet normal -0 0 1
    outer loop
      vertex -4.125 -37.2476 2
      vertex -2.99404 -37.3475 2
      vertex -2.75241 -35.875 2
    endloop
  endfacet
  facet normal -0 0 1
    outer loop
      vertex -6 -37.75 2
      vertex -3.88377 -39.0427 2
      vertex -4.125 -37.2476 2
    endloop
  endfacet
  facet normal 0 0 1
    outer loop
      vertex -2.99404 -37.3475 2
      vertex -4.125 -37.2476 2
      vertex -3.88377 -39.0427 2
    endloop
  endfacet
  facet normal -0.416767 -0.57363 0.705162
    outer loop
      vertex -7.36044 -48.1746 2
      vertex -8.6987 -49.6609 0
      vertex -6.5 -51.2583 0
    endloop
  endfacet
  facet normal 0 0 -1
    outer loop
      vertex 7 -44.268 0
      vertex 13 -40 0
      vertex 12.7159 -42.7029 0
    endloop
  endfacet
  facet normal 0 0 -1
    outer loop
      vertex 7.73205 -45 0
      vertex 12.7159 -42.7029 0
      vertex 11.8761 -45.2876 0
    endloop
  endfacet
  facet normal 0 0 -1
    outer loop
      vertex 4 -40 0
      vertex 13 -40 0
      vertex 7 -44.268 0
    endloop
  endfacet
  facet normal 0 0 -1
    outer loop
      vertex 8 -46 0
      vertex 11.8761 -45.2876 0
      vertex 10.5172 -47.6412 0
    endloop
  endfacet
  facet normal 0 0 -1
    outer loop
      vertex 12.7159 -42.7029 0
      vertex 7.73205 -45 0
      vertex 7 -44.268 0
    endloop
  endfacet
  facet normal 0 0 -1
    outer loop
      vertex 7.73205 -47 0
      vertex 10.5172 -47.6412 0
      vertex 8.6987 -49.6609 0
    endloop
  endfacet
  facet normal -0 0 -1
    outer loop
      vertex 11.8761 -45.2876 0
      vertex 8 -46 0
      vertex 7.73205 -45 0
    endloop
  endfacet
  facet normal 0 0 -1
    outer loop
      vertex 13 -40 0
      vertex 4 -40 0
      vertex 12.7159 -37.2971 0
    endloop
  endfacet
  facet normal 0 0 -1
    outer loop
      vertex 10.5172 -47.6412 0
      vertex 7.73205 -47 0
      vertex 8 -46 0
    endloop
  endfacet
  facet normal 0 0 -1
    outer loop
      vertex 8.6987 -49.6609 0
      vertex 7 -47.732 0
      vertex 7.73205 -47 0
    endloop
  endfacet
  facet normal 0 0 -1
    outer loop
      vertex 6 -48 0
      vertex 8.6987 -49.6609 0
      vertex 6.5 -51.2583 0
    endloop
  endfacet
  facet normal 0 0 -1
    outer loop
      vertex 8.6987 -49.6609 0
      vertex 6 -48 0
      vertex 7 -47.732 0
    endloop
  endfacet
  facet normal 0 0 -1
    outer loop
      vertex 6.5 -51.2583 0
      vertex 5 -47.732 0
      vertex 6 -48 0
    endloop
  endfacet
  facet normal 0 0 -1
    outer loop
      vertex 4.01722 -52.3637 0
      vertex 5 -47.732 0
      vertex 6.5 -51.2583 0
    endloop
  endfacet
  facet normal -0 0 -1
    outer loop
      vertex 5 -47.732 0
      vertex 4.01722 -52.3637 0
      vertex 4.26795 -47 0
    endloop
  endfacet
  facet normal 0 0 -1
    outer loop
      vertex 1.35887 -52.9288 0
      vertex 4.26795 -47 0
      vertex 4.01722 -52.3637 0
    endloop
  endfacet
  facet normal 0 0 -1
    outer loop
      vertex 6 -44 0
      vertex 3.54182 -41.8589 0
      vertex 4 -40 0
    endloop
  endfacet
  facet normal 0 0 -1
    outer loop
      vertex -1.35887 -52.9288 0
      vertex 4.26795 -47 0
      vertex 1.35887 -52.9288 0
    endloop
  endfacet
  facet normal 0 0 -1
    outer loop
      vertex 4.26795 -45 0
      vertex 2.27226 -43.2919 0
      vertex 3.54182 -41.8589 0
    endloop
  endfacet
  facet normal 0 0 -1
    outer loop
      vertex 4.26795 -47 0
      vertex 0.482146 -43.9708 0
      vertex 4 -46 0
    endloop
  endfacet
  facet normal 0 0 -1
    outer loop
      vertex 4 -46 0
      vertex 0.482146 -43.9708 0
      vertex 2.27226 -43.2919 0
    endloop
  endfacet
  facet normal -0 0 -1
    outer loop
      vertex 4.26795 -47 0
      vertex -1.35887 -52.9288 0
      vertex 0.482146 -43.9708 0
    endloop
  endfacet
  facet normal 0 0 -1
    outer loop
      vertex -1.35887 -52.9288 0
      vertex -1.41842 -43.7401 0
      vertex 0.482146 -43.9708 0
    endloop
  endfacet
  facet normal 0 0 -1
    outer loop
      vertex -4.01722 -52.3637 0
      vertex -1.41842 -43.7401 0
      vertex -1.35887 -52.9288 0
    endloop
  endfacet
  facet normal 0 0 -1
    outer loop
      vertex -6.5 -51.2583 0
      vertex -1.41842 -43.7401 0
      vertex -4.01722 -52.3637 0
    endloop
  endfacet
  facet normal 0 0 -1
    outer loop
      vertex -7 -35.732 0
      vertex -3.88377 -39.0427 0
      vertex -3.88377 -40.9573 0
    endloop
  endfacet
  facet normal -0 0 -1
    outer loop
      vertex -1.41842 -43.7401 0
      vertex -6.5 -51.2583 0
      vertex -2.99404 -42.6525 0
    endloop
  endfacet
  facet normal 0 0 -1
    outer loop
      vertex -8.6987 -49.6609 0
      vertex -2.99404 -42.6525 0
      vertex -6.5 -51.2583 0
    endloop
  endfacet
  facet normal 0 0 -1
    outer loop
      vertex -3.88377 -39.0427 0
      vertex -4.26795 -35 0
      vertex -4 -34 0
    endloop
  endfacet
  facet normal 0 0 -1
    outer loop
      vertex -3.88377 -39.0427 0
      vertex -5 -35.732 0
      vertex -4.26795 -35 0
    endloop
  endfacet
  facet normal 0 0 -1
    outer loop
      vertex -10.5172 -47.6412 0
      vertex -2.99404 -42.6525 0
      vertex -8.6987 -49.6609 0
    endloop
  endfacet
  facet normal 0 0 -1
    outer loop
      vertex -11.8761 -45.2876 0
      vertex -2.99404 -42.6525 0
      vertex -10.5172 -47.6412 0
    endloop
  endfacet
  facet normal 0 0 -1
    outer loop
      vertex -3.88377 -39.0427 0
      vertex -6 -36 0
      vertex -5 -35.732 0
    endloop
  endfacet
  facet normal -0 0 -1
    outer loop
      vertex -2.99404 -42.6525 0
      vertex -11.8761 -45.2876 0
      vertex -3.88377 -40.9573 0
    endloop
  endfacet
  facet normal 0 0 -1
    outer loop
      vertex -12.7159 -42.7029 0
      vertex -3.88377 -40.9573 0
      vertex -11.8761 -45.2876 0
    endloop
  endfacet
  facet normal 0 0 -1
    outer loop
      vertex -13 -40 0
      vertex -3.88377 -40.9573 0
      vertex -12.7159 -42.7029 0
    endloop
  endfacet
  facet normal 0 0 -1
    outer loop
      vertex 3.54182 -38.1411 0
      vertex 12.7159 -37.2971 0
      vertex 4 -40 0
    endloop
  endfacet
  facet normal -0 0 -1
    outer loop
      vertex 12.7159 -37.2971 0
      vertex 3.54182 -38.1411 0
      vertex 11.8761 -34.7124 0
    endloop
  endfacet
  facet normal -0 0 -1
    outer loop
      vertex 11.8761 -34.7124 0
      vertex 3.54182 -38.1411 0
      vertex 10.5172 -32.3588 0
    endloop
  endfacet
  facet normal 0 0 -1
    outer loop
      vertex 4 -40 0
      vertex 7 -44.268 0
      vertex 6 -44 0
    endloop
  endfacet
  facet normal 0 0 -1
    outer loop
      vertex 3.54182 -41.8589 0
      vertex 6 -44 0
      vertex 5 -44.268 0
    endloop
  endfacet
  facet normal 0 0 -1
    outer loop
      vertex 3.54182 -41.8589 0
      vertex 5 -44.268 0
      vertex 4.26795 -45 0
    endloop
  endfacet
  facet normal 0 0 -1
    outer loop
      vertex 2.27226 -36.7081 0
      vertex 10.5172 -32.3588 0
      vertex 3.54182 -38.1411 0
    endloop
  endfacet
  facet normal 0 0 -1
    outer loop
      vertex 2.27226 -43.2919 0
      vertex 4.26795 -45 0
      vertex 4 -46 0
    endloop
  endfacet
  facet normal -0 0 -1
    outer loop
      vertex 10.5172 -32.3588 0
      vertex 2.27226 -36.7081 0
      vertex 8.6987 -30.3391 0
    endloop
  endfacet
  facet normal -0 0 -1
    outer loop
      vertex 8.6987 -30.3391 0
      vertex 2.27226 -36.7081 0
      vertex 6.5 -28.7417 0
    endloop
  endfacet
  facet normal -0 0 -1
    outer loop
      vertex 6.5 -28.7417 0
      vertex 2.27226 -36.7081 0
      vertex 4.01722 -27.6363 0
    endloop
  endfacet
  facet normal 0 0 -1
    outer loop
      vertex 0.482146 -36.0292 0
      vertex 4.01722 -27.6363 0
      vertex 2.27226 -36.7081 0
    endloop
  endfacet
  facet normal -0 0 -1
    outer loop
      vertex 4.01722 -27.6363 0
      vertex 0.482146 -36.0292 0
      vertex 1.35887 -27.0712 0
    endloop
  endfacet
  facet normal 0 0 -1
    outer loop
      vertex -4.26795 -33 0
      vertex 1.35887 -27.0712 0
      vertex 0.482146 -36.0292 0
    endloop
  endfacet
  facet normal 0 0 -1
    outer loop
      vertex -4 -34 0
      vertex 0.482146 -36.0292 0
      vertex -1.41842 -36.2599 0
    endloop
  endfacet
  facet normal 0 0 -1
    outer loop
      vertex -4 -34 0
      vertex -1.41842 -36.2599 0
      vertex -2.99404 -37.3475 0
    endloop
  endfacet
  facet normal 0 0 -1
    outer loop
      vertex -4 -34 0
      vertex -2.99404 -37.3475 0
      vertex -3.88377 -39.0427 0
    endloop
  endfacet
  facet normal 0 0 -1
    outer loop
      vertex 0.482146 -36.0292 0
      vertex -4 -34 0
      vertex -4.26795 -33 0
    endloop
  endfacet
  facet normal -0 0 -1
    outer loop
      vertex 1.35887 -27.0712 0
      vertex -4.26795 -33 0
      vertex -1.35887 -27.0712 0
    endloop
  endfacet
  facet normal 0 0 -1
    outer loop
      vertex -1.35887 -27.0712 0
      vertex -4.26795 -33 0
      vertex -4.01722 -27.6363 0
    endloop
  endfacet
  facet normal 0 0 -1
    outer loop
      vertex -5 -32.268 0
      vertex -4.01722 -27.6363 0
      vertex -4.26795 -33 0
    endloop
  endfacet
  facet normal 0 0 -1
    outer loop
      vertex -6.5 -28.7417 0
      vertex -5 -32.268 0
      vertex -6 -32 0
    endloop
  endfacet
  facet normal 0 0 -1
    outer loop
      vertex -5 -32.268 0
      vertex -6.5 -28.7417 0
      vertex -4.01722 -27.6363 0
    endloop
  endfacet
  facet normal 0 0 -1
    outer loop
      vertex -8.6987 -30.3391 0
      vertex -6 -32 0
      vertex -7 -32.268 0
    endloop
  endfacet
  facet normal 0 0 -1
    outer loop
      vertex -8.6987 -30.3391 0
      vertex -7 -32.268 0
      vertex -7.73205 -33 0
    endloop
  endfacet
  facet normal 0 0 -1
    outer loop
      vertex -6 -32 0
      vertex -8.6987 -30.3391 0
      vertex -6.5 -28.7417 0
    endloop
  endfacet
  facet normal 0 0 -1
    outer loop
      vertex -10.5172 -32.3588 0
      vertex -7.73205 -33 0
      vertex -8 -34 0
    endloop
  endfacet
  facet normal 0 0 -1
    outer loop
      vertex -3.88377 -39.0427 0
      vertex -7 -35.732 0
      vertex -6 -36 0
    endloop
  endfacet
  facet normal 0 0 -1
    outer loop
      vertex -3.88377 -40.9573 0
      vertex -13 -40 0
      vertex -7 -35.732 0
    endloop
  endfacet
  facet normal 0 0 -1
    outer loop
      vertex -7.73205 -33 0
      vertex -10.5172 -32.3588 0
      vertex -8.6987 -30.3391 0
    endloop
  endfacet
  facet normal 0 -0 -1
    outer loop
      vertex -12.7159 -37.2971 0
      vertex -7 -35.732 0
      vertex -13 -40 0
    endloop
  endfacet
  facet normal -0 0 -1
    outer loop
      vertex -8 -34 0
      vertex -11.8761 -34.7124 0
      vertex -10.5172 -32.3588 0
    endloop
  endfacet
  facet normal -0 0 -1
    outer loop
      vertex -7 -35.732 0
      vertex -12.7159 -37.2971 0
      vertex -7.73205 -35 0
    endloop
  endfacet
  facet normal 0 0 -1
    outer loop
      vertex -7.73205 -35 0
      vertex -11.8761 -34.7124 0
      vertex -8 -34 0
    endloop
  endfacet
  facet normal 0 -0 -1
    outer loop
      vertex -11.8761 -34.7124 0
      vertex -7.73205 -35 0
      vertex -12.7159 -37.2971 0
    endloop
  endfacet
  facet normal 0.674343 -0.219108 0.705162
    outer loop
      vertex 12.7159 -42.7029 0
      vertex 10.049 -44.4741 2
      vertex 11.8761 -45.2876 0
    endloop
  endfacet
  facet normal 0.526924 0.474444 0.705162
    outer loop
      vertex 10.5172 -32.3588 0
      vertex 7.36044 -31.8254 2
      vertex 8.89919 -33.5344 2
    endloop
  endfacet
  facet normal 0.288395 0.647746 0.705162
    outer loop
      vertex 4.01722 -27.6363 0
      vertex 3.39919 -29.5384 2
      vertex 6.5 -28.7417 0
    endloop
  endfacet
  facet normal -0.705162 0.0741155 0.705162
    outer loop
      vertex -10.7596 -37.713 2
      vertex -13 -40 0
      vertex -11 -40 2
    endloop
  endfacet
  facet normal -0.147419 0.693552 0.705162
    outer loop
      vertex -1.35887 -27.0712 0
      vertex -3.39919 -29.5384 2
      vertex -1.14981 -29.0603 2
    endloop
  endfacet
  facet normal -0.674343 -0.219108 0.705162
    outer loop
      vertex -10.049 -44.4741 2
      vertex -12.7159 -42.7029 0
      vertex -11.8761 -45.2876 0
    endloop
  endfacet
  facet normal 0.416767 -0.57363 0.705162
    outer loop
      vertex 7.66866 -49.3029 0.9
      vertex 8.6987 -49.6609 0
      vertex 8.09648 -48.9921 0.9
    endloop
  endfacet
  facet normal 0.416769 -0.57363 0.705161
    outer loop
      vertex 6.5 -51.2583 0
      vertex 7.66866 -49.3029 0.9
      vertex 6.99527 -49.4833 1.15121
    endloop
  endfacet
  facet normal 0.416767 -0.57363 0.705162
    outer loop
      vertex 7.66866 -49.3029 0.9
      vertex 6.5 -51.2583 0
      vertex 8.6987 -49.6609 0
    endloop
  endfacet
  facet normal 0.705162 -0.0741156 0.705162
    outer loop
      vertex 13 -40 0
      vertex 10.7596 -42.287 2
      vertex 12.7159 -42.7029 0
    endloop
  endfacet
  facet normal 0.705162 -0.0741155 0.705162
    outer loop
      vertex 11 -40 2
      vertex 10.7596 -42.287 2
      vertex 13 -40 0
    endloop
  endfacet
  facet normal 0.674343 0.219108 0.705162
    outer loop
      vertex 12.7159 -37.2971 0
      vertex 10.049 -35.5259 2
      vertex 10.7596 -37.713 2
    endloop
  endfacet
  facet normal 0.416767 0.57363 0.705162
    outer loop
      vertex 8.6987 -30.3391 0
      vertex 6.5 -28.7417 0
      vertex 7.36044 -31.8254 2
    endloop
  endfacet
  facet normal 0.526924 0.474445 0.705162
    outer loop
      vertex 8.6987 -30.3391 0
      vertex 7.36044 -31.8254 2
      vertex 10.5172 -32.3588 0
    endloop
  endfacet
  facet normal 0.674343 0.219108 0.705162
    outer loop
      vertex 11.8761 -34.7124 0
      vertex 10.049 -35.5259 2
      vertex 12.7159 -37.2971 0
    endloop
  endfacet
  facet normal 0.614052 0.354523 0.705162
    outer loop
      vertex 10.5172 -32.3588 0
      vertex 10.049 -35.5259 2
      vertex 11.8761 -34.7124 0
    endloop
  endfacet
  facet normal 0 0.709046 0.705162
    outer loop
      vertex 1.35887 -27.0712 0
      vertex -1.14981 -29.0603 2
      vertex 1.14981 -29.0603 2
    endloop
  endfacet
  facet normal 0 0.709046 0.705162
    outer loop
      vertex -1.14981 -29.0603 2
      vertex 1.35887 -27.0712 0
      vertex -1.35887 -27.0712 0
    endloop
  endfacet
  facet normal -0.674343 0.219108 0.705162
    outer loop
      vertex -10.049 -35.5259 2
      vertex -12.7159 -37.2971 0
      vertex -10.7596 -37.713 2
    endloop
  endfacet
  facet normal -0.416767 0.573631 0.705162
    outer loop
      vertex -6.5 -28.7417 0
      vertex -7.66866 -30.6971 0.9
      vertex -6.99527 -30.5167 1.15121
    endloop
  endfacet
  facet normal -0.416767 0.573631 0.705161
    outer loop
      vertex -8.6987 -30.3391 0
      vertex -7.66866 -30.6971 0.9
      vertex -6.5 -28.7417 0
    endloop
  endfacet
  facet normal -0.416768 0.57363 0.705162
    outer loop
      vertex -7.66866 -30.6971 0.9
      vertex -8.6987 -30.3391 0
      vertex -8.09648 -31.0079 0.9
    endloop
  endfacet
  facet normal -0.614052 -0.354523 0.705162
    outer loop
      vertex -10.049 -44.4741 2
      vertex -11.8761 -45.2876 0
      vertex -10.5172 -47.6412 0
    endloop
  endfacet
  facet normal -0.288395 -0.647746 0.705162
    outer loop
      vertex -3.39919 -50.4616 2
      vertex -6.5 -51.2583 0
      vertex -4.01722 -52.3637 0
    endloop
  endfacet
  facet normal -0.147419 -0.693552 0.705162
    outer loop
      vertex -3.39919 -50.4616 2
      vertex -4.01722 -52.3637 0
      vertex -1.35887 -52.9288 0
    endloop
  endfacet
  facet normal 0 -0.709046 0.705162
    outer loop
      vertex -1.35887 -52.9288 0
      vertex 1.14981 -50.9397 2
      vertex -1.14981 -50.9397 2
    endloop
  endfacet
  facet normal 0 -0.709046 0.705162
    outer loop
      vertex 1.14981 -50.9397 2
      vertex -1.35887 -52.9288 0
      vertex 1.35887 -52.9288 0
    endloop
  endfacet
  facet normal 0.147419 -0.693552 0.705162
    outer loop
      vertex 3.39919 -50.4616 2
      vertex 1.14981 -50.9397 2
      vertex 1.35887 -52.9288 0
    endloop
  endfacet
  facet normal 0.147419 -0.693552 0.705162
    outer loop
      vertex 3.39919 -50.4616 2
      vertex 1.35887 -52.9288 0
      vertex 4.01722 -52.3637 0
    endloop
  endfacet
  facet normal 0.526924 -0.474444 0.705163
    outer loop
      vertex 9.30916 -47.6452 0.9
      vertex 10.5172 -47.6412 0
      vertex 9.50692 -46.9072 1.2488
    endloop
  endfacet
  facet normal 0.526923 -0.474446 0.705162
    outer loop
      vertex 10.5172 -47.6412 0
      vertex 9.30916 -47.6452 0.9
      vertex 9.09667 -47.8812 0.9
    endloop
  endfacet
  facet normal 0.674343 -0.219108 0.705162
    outer loop
      vertex 10.7596 -42.287 2
      vertex 10.049 -44.4741 2
      vertex 12.7159 -42.7029 0
    endloop
  endfacet
  facet normal 0.614052 0.354523 0.705162
    outer loop
      vertex 10.5172 -32.3588 0
      vertex 8.89919 -33.5344 2
      vertex 10.049 -35.5259 2
    endloop
  endfacet
  facet normal 0.288395 0.647746 0.705162
    outer loop
      vertex 6.5 -28.7417 0
      vertex 3.39919 -29.5384 2
      vertex 5.5 -30.4737 2
    endloop
  endfacet
  facet normal 0.147419 0.693552 0.705162
    outer loop
      vertex 1.35887 -27.0712 0
      vertex 1.14981 -29.0603 2
      vertex 3.39919 -29.5384 2
    endloop
  endfacet
  facet normal 0.147419 0.693552 0.705162
    outer loop
      vertex 4.01722 -27.6363 0
      vertex 1.35887 -27.0712 0
      vertex 3.39919 -29.5384 2
    endloop
  endfacet
  facet normal -0.526924 0.474444 0.705163
    outer loop
      vertex -9.30916 -32.3548 0.9
      vertex -10.5172 -32.3588 0
      vertex -9.50692 -33.0928 1.2488
    endloop
  endfacet
  facet normal -0.526923 0.474446 0.705162
    outer loop
      vertex -10.5172 -32.3588 0
      vertex -9.30916 -32.3548 0.9
      vertex -9.09667 -32.1188 0.9
    endloop
  endfacet
  facet normal -0.674343 0.219108 0.705162
    outer loop
      vertex -11.8761 -34.7124 0
      vertex -12.7159 -37.2971 0
      vertex -10.049 -35.5259 2
    endloop
  endfacet
  facet normal -0.288395 0.647746 0.705162
    outer loop
      vertex -4.01722 -27.6363 0
      vertex -6.5 -28.7417 0
      vertex -3.39919 -29.5384 2
    endloop
  endfacet
  facet normal -0.526925 0.474444 0.705162
    outer loop
      vertex -8.6987 -30.3391 0
      vertex -9.09667 -32.1188 0.9
      vertex -8.09648 -31.0079 0.9
    endloop
  endfacet
  facet normal -0.526923 0.474445 0.705162
    outer loop
      vertex -9.09667 -32.1188 0.9
      vertex -8.6987 -30.3391 0
      vertex -10.5172 -32.3588 0
    endloop
  endfacet
  facet normal -0.674343 -0.219108 0.705162
    outer loop
      vertex -10.7596 -42.287 2
      vertex -12.7159 -42.7029 0
      vertex -10.049 -44.4741 2
    endloop
  endfacet
  facet normal -0.147419 -0.693552 0.705162
    outer loop
      vertex -1.14981 -50.9397 2
      vertex -3.39919 -50.4616 2
      vertex -1.35887 -52.9288 0
    endloop
  endfacet
  facet normal -0.288395 -0.647746 0.705162
    outer loop
      vertex -5.5 -49.5263 2
      vertex -6.5 -51.2583 0
      vertex -3.39919 -50.4616 2
    endloop
  endfacet
  facet normal 0.526923 -0.474445 0.705162
    outer loop
      vertex 9.09667 -47.8812 0.9
      vertex 8.6987 -49.6609 0
      vertex 10.5172 -47.6412 0
    endloop
  endfacet
  facet normal 0.526924 -0.474444 0.705162
    outer loop
      vertex 8.6987 -49.6609 0
      vertex 9.09667 -47.8812 0.9
      vertex 8.09648 -48.9921 0.9
    endloop
  endfacet
  facet normal 0.288395 -0.647746 0.705162
    outer loop
      vertex 6.5 -51.2583 0
      vertex 3.39919 -50.4616 2
      vertex 4.01722 -52.3637 0
    endloop
  endfacet
  facet normal 0.614051 -0.354523 0.705163
    outer loop
      vertex 10.049 -44.4741 2
      vertex 9.56552 -45.3115 2
      vertex 9.75 -46 1.49322
    endloop
  endfacet
  facet normal 0.614052 -0.354523 0.705162
    outer loop
      vertex 9.75 -46 1.49322
      vertex 10.5172 -47.6412 0
      vertex 10.049 -44.4741 2
    endloop
  endfacet
  facet normal 0.614051 -0.354524 0.705163
    outer loop
      vertex 10.5172 -47.6412 0
      vertex 9.75 -46 1.49322
      vertex 9.50692 -46.9072 1.2488
    endloop
  endfacet
  facet normal 0.614052 -0.354523 0.705162
    outer loop
      vertex 11.8761 -45.2876 0
      vertex 10.049 -44.4741 2
      vertex 10.5172 -47.6412 0
    endloop
  endfacet
  facet normal -0.614052 0.354523 0.705162
    outer loop
      vertex -9.75 -34 1.49322
      vertex -10.5172 -32.3588 0
      vertex -10.049 -35.5259 2
    endloop
  endfacet
  facet normal -0.614051 0.354524 0.705162
    outer loop
      vertex -10.5172 -32.3588 0
      vertex -9.75 -34 1.49322
      vertex -9.50692 -33.0928 1.2488
    endloop
  endfacet
  facet normal -0.614051 0.354523 0.705163
    outer loop
      vertex -9.56552 -34.6885 2
      vertex -9.75 -34 1.49322
      vertex -10.049 -35.5259 2
    endloop
  endfacet
  facet normal -0.614052 0.354523 0.705162
    outer loop
      vertex -10.5172 -32.3588 0
      vertex -11.8761 -34.7124 0
      vertex -10.049 -35.5259 2
    endloop
  endfacet
  facet normal -0.147419 0.693552 0.705162
    outer loop
      vertex -1.35887 -27.0712 0
      vertex -4.01722 -27.6363 0
      vertex -3.39919 -29.5384 2
    endloop
  endfacet
  facet normal -0.288395 0.647746 0.705162
    outer loop
      vertex -6.5 -28.7417 0
      vertex -5.37416 -30.4177 2
      vertex -3.39919 -29.5384 2
    endloop
  endfacet
  facet normal -0.288393 0.647747 0.705162
    outer loop
      vertex -5.37416 -30.4177 2
      vertex -6.5 -28.7417 0
      vertex -5.5613 -30.3675 1.8774
    endloop
  endfacet
  facet normal -0.416767 0.57363 0.705162
    outer loop
      vertex -6.5 -28.7417 0
      vertex -6 -30.25 1.5225
      vertex -5.5613 -30.3675 1.8774
    endloop
  endfacet
  facet normal -0.416766 0.573631 0.705162
    outer loop
      vertex -6 -30.25 1.5225
      vertex -6.5 -28.7417 0
      vertex -6.99527 -30.5167 1.15121
    endloop
  endfacet
  facet normal -0.614052 -0.354523 0.705162
    outer loop
      vertex -10.049 -44.4741 2
      vertex -10.5172 -47.6412 0
      vertex -8.89919 -46.4656 2
    endloop
  endfacet
  facet normal -0.526924 -0.474445 0.705162
    outer loop
      vertex -8.89919 -46.4656 2
      vertex -10.5172 -47.6412 0
      vertex -7.36044 -48.1746 2
    endloop
  endfacet
  facet normal -0.705162 -0.0741155 0.705162
    outer loop
      vertex -11 -40 2
      vertex -13 -40 0
      vertex -10.7596 -42.287 2
    endloop
  endfacet
  facet normal -0.705162 -0.0741156 0.705162
    outer loop
      vertex -10.7596 -42.287 2
      vertex -13 -40 0
      vertex -12.7159 -42.7029 0
    endloop
  endfacet
  facet normal -0.526924 -0.474445 0.705162
    outer loop
      vertex -7.36044 -48.1746 2
      vertex -10.5172 -47.6412 0
      vertex -8.6987 -49.6609 0
    endloop
  endfacet
  facet normal -0.416767 -0.57363 0.705162
    outer loop
      vertex -5.5 -49.5263 2
      vertex -7.36044 -48.1746 2
      vertex -6.5 -51.2583 0
    endloop
  endfacet
  facet normal 0.416767 -0.57363 0.705162
    outer loop
      vertex 6 -49.75 1.5225
      vertex 6.5 -51.2583 0
      vertex 6.99527 -49.4833 1.15121
    endloop
  endfacet
  facet normal 0.416767 -0.57363 0.705162
    outer loop
      vertex 6.5 -51.2583 0
      vertex 6 -49.75 1.5225
      vertex 5.5613 -49.6325 1.8774
    endloop
  endfacet
  facet normal 0.288393 -0.647747 0.705162
    outer loop
      vertex 5.37416 -49.5823 2
      vertex 6.5 -51.2583 0
      vertex 5.5613 -49.6325 1.8774
    endloop
  endfacet
  facet normal 0.288395 -0.647746 0.705162
    outer loop
      vertex 6.5 -51.2583 0
      vertex 5.37416 -49.5823 2
      vertex 3.39919 -50.4616 2
    endloop
  endfacet
  facet normal -0.970942 -0.239316 0
    outer loop
      vertex 4 -40 0
      vertex 3.54182 -38.1411 2
      vertex 3.54182 -38.1411 0
    endloop
  endfacet
  facet normal -0.970942 -0.239316 0
    outer loop
      vertex 3.54182 -38.1411 2
      vertex 4 -40 0
      vertex 4 -40 2
    endloop
  endfacet
  facet normal 1 -0 0
    outer loop
      vertex -3.88377 -40.9573 2
      vertex -3.88377 -39.0427 0
      vertex -3.88377 -39.0427 2
    endloop
  endfacet
  facet normal 1 0 0
    outer loop
      vertex -3.88377 -39.0427 0
      vertex -3.88377 -40.9573 2
      vertex -3.88377 -40.9573 0
    endloop
  endfacet
  facet normal 0.120535 -0.992709 0
    outer loop
      vertex -1.41842 -36.2599 0
      vertex 0.482146 -36.0292 2
      vertex -1.41842 -36.2599 2
    endloop
  endfacet
  facet normal 0.120535 -0.992709 0
    outer loop
      vertex 0.482146 -36.0292 2
      vertex -1.41842 -36.2599 0
      vertex 0.482146 -36.0292 0
    endloop
  endfacet
  facet normal -0.74851 -0.663123 0
    outer loop
      vertex 3.54182 -38.1411 0
      vertex 2.27226 -36.7081 2
      vertex 2.27226 -36.7081 0
    endloop
  endfacet
  facet normal -0.74851 -0.663123 0
    outer loop
      vertex 2.27226 -36.7081 2
      vertex 3.54182 -38.1411 0
      vertex 3.54182 -38.1411 2
    endloop
  endfacet
  facet normal 0.568066 -0.822983 0
    outer loop
      vertex -2.99404 -37.3475 0
      vertex -1.41842 -36.2599 2
      vertex -2.99404 -37.3475 2
    endloop
  endfacet
  facet normal 0.568066 -0.822983 0
    outer loop
      vertex -1.41842 -36.2599 2
      vertex -2.99404 -37.3475 0
      vertex -1.41842 -36.2599 0
    endloop
  endfacet
  facet normal -0.970942 0.239316 0
    outer loop
      vertex 3.54182 -41.8589 0
      vertex 4 -40 2
      vertex 4 -40 0
    endloop
  endfacet
  facet normal -0.970942 0.239316 0
    outer loop
      vertex 4 -40 2
      vertex 3.54182 -41.8589 0
      vertex 3.54182 -41.8589 2
    endloop
  endfacet
  facet normal -0.354604 -0.935017 0
    outer loop
      vertex 0.482146 -36.0292 0
      vertex 2.27226 -36.7081 2
      vertex 0.482146 -36.0292 2
    endloop
  endfacet
  facet normal -0.354604 -0.935017 -0
    outer loop
      vertex 2.27226 -36.7081 2
      vertex 0.482146 -36.0292 0
      vertex 2.27226 -36.7081 0
    endloop
  endfacet
  facet normal 0.885456 0.464723 0
    outer loop
      vertex -2.99404 -42.6525 2
      vertex -3.88377 -40.9573 0
      vertex -3.88377 -40.9573 2
    endloop
  endfacet
  facet normal 0.885456 0.464723 0
    outer loop
      vertex -3.88377 -40.9573 0
      vertex -2.99404 -42.6525 2
      vertex -2.99404 -42.6525 0
    endloop
  endfacet
  facet normal -0.74851 0.663123 0
    outer loop
      vertex 2.27226 -43.2919 0
      vertex 3.54182 -41.8589 2
      vertex 3.54182 -41.8589 0
    endloop
  endfacet
  facet normal -0.74851 0.663123 0
    outer loop
      vertex 3.54182 -41.8589 2
      vertex 2.27226 -43.2919 0
      vertex 2.27226 -43.2919 2
    endloop
  endfacet
  facet normal 0.885456 -0.464723 0
    outer loop
      vertex -3.88377 -39.0427 2
      vertex -2.99404 -37.3475 0
      vertex -2.99404 -37.3475 2
    endloop
  endfacet
  facet normal 0.885456 -0.464723 0
    outer loop
      vertex -2.99404 -37.3475 0
      vertex -3.88377 -39.0427 2
      vertex -3.88377 -39.0427 0
    endloop
  endfacet
  facet normal 0.568066 0.822983 -0
    outer loop
      vertex -1.41842 -43.7401 0
      vertex -2.99404 -42.6525 2
      vertex -1.41842 -43.7401 2
    endloop
  endfacet
  facet normal 0.568066 0.822983 0
    outer loop
      vertex -2.99404 -42.6525 2
      vertex -1.41842 -43.7401 0
      vertex -2.99404 -42.6525 0
    endloop
  endfacet
  facet normal -0.354604 0.935017 0
    outer loop
      vertex 2.27226 -43.2919 0
      vertex 0.482146 -43.9708 2
      vertex 2.27226 -43.2919 2
    endloop
  endfacet
  facet normal -0.354604 0.935017 0
    outer loop
      vertex 0.482146 -43.9708 2
      vertex 2.27226 -43.2919 0
      vertex 0.482146 -43.9708 0
    endloop
  endfacet
  facet normal 0.120535 0.992709 -0
    outer loop
      vertex 0.482146 -43.9708 0
      vertex -1.41842 -43.7401 2
      vertex 0.482146 -43.9708 2
    endloop
  endfacet
  facet normal 0.120535 0.992709 0
    outer loop
      vertex -1.41842 -43.7401 2
      vertex 0.482146 -43.9708 0
      vertex -1.41842 -43.7401 0
    endloop
  endfacet
endsolid OpenSCAD_Model
